<svg width="116" height="16" viewBox="0 0 116 16" fill="none" xmlns="http://www.w3.org/2000/svg">
<path d="M17.148 13V3.284H18.464V13H17.148ZM18.044 8.73V7.526H23.112V8.73H18.044ZM18.044 4.488V3.284H23.35V4.488H18.044ZM24.8537 13V6.35H26.1137V13H24.8537ZM26.1137 9.206L25.6377 8.996C25.6377 8.14667 25.8337 7.47 26.2257 6.966C26.6177 6.462 27.1824 6.21 27.9197 6.21C28.2557 6.21 28.559 6.27067 28.8297 6.392C29.1004 6.504 29.3524 6.69533 29.5857 6.966L28.7597 7.82C28.6197 7.67067 28.4657 7.56333 28.2977 7.498C28.1297 7.43267 27.9337 7.4 27.7097 7.4C27.243 7.4 26.8604 7.54933 26.5617 7.848C26.263 8.14667 26.1137 8.59933 26.1137 9.206ZM33.2921 13.14C32.6387 13.14 32.0507 12.986 31.5281 12.678C31.0054 12.37 30.5901 11.9547 30.2821 11.432C29.9741 10.9 29.8201 10.3073 29.8201 9.654C29.8201 9.01 29.9741 8.43133 30.2821 7.918C30.5901 7.39533 31.0054 6.98 31.5281 6.672C32.0507 6.364 32.6387 6.21 33.2921 6.21C33.9361 6.21 34.5194 6.364 35.0421 6.672C35.5741 6.97067 35.9941 7.38133 36.3021 7.904C36.6101 8.42667 36.7641 9.01 36.7641 9.654C36.7641 10.3073 36.6101 10.9 36.3021 11.432C35.9941 11.9547 35.5741 12.37 35.0421 12.678C34.5194 12.986 33.9361 13.14 33.2921 13.14ZM33.2921 11.922C33.7121 11.922 34.0854 11.824 34.4121 11.628C34.7387 11.432 34.9954 11.166 35.1821 10.83C35.3687 10.4847 35.4621 10.0927 35.4621 9.654C35.4621 9.22467 35.3641 8.842 35.1681 8.506C34.9814 8.17 34.7247 7.90867 34.3981 7.722C34.0807 7.526 33.7121 7.428 33.2921 7.428C32.8721 7.428 32.4987 7.526 32.1721 7.722C31.8454 7.90867 31.5887 8.17 31.4021 8.506C31.2154 8.842 31.1221 9.22467 31.1221 9.654C31.1221 10.0927 31.2154 10.4847 31.4021 10.83C31.5887 11.166 31.8454 11.432 32.1721 11.628C32.4987 11.824 32.8721 11.922 33.2921 11.922ZM38.1838 13V6.35H39.4438V13H38.1838ZM42.6778 13V8.982C42.6778 8.48733 42.5238 8.1 42.2158 7.82C41.9171 7.53067 41.5391 7.386 41.0818 7.386C40.7738 7.386 40.4984 7.45133 40.2558 7.582C40.0131 7.71267 39.8171 7.89467 39.6678 8.128C39.5184 8.36133 39.4438 8.64133 39.4438 8.968L38.9258 8.716C38.9258 8.212 39.0331 7.77333 39.2478 7.4C39.4718 7.02667 39.7751 6.73733 40.1578 6.532C40.5404 6.31733 40.9698 6.21 41.4458 6.21C41.9124 6.21 42.3324 6.31267 42.7058 6.518C43.0884 6.72333 43.3871 7.01267 43.6018 7.386C43.8258 7.75933 43.9378 8.20267 43.9378 8.716V13H42.6778ZM47.1718 13V8.982C47.1718 8.48733 47.0178 8.1 46.7098 7.82C46.4111 7.53067 46.0378 7.386 45.5898 7.386C45.2818 7.386 45.0018 7.45133 44.7498 7.582C44.5071 7.71267 44.3111 7.89467 44.1618 8.128C44.0124 8.36133 43.9378 8.64133 43.9378 8.968L43.2238 8.716C43.2518 8.20267 43.3871 7.764 43.6298 7.4C43.8818 7.02667 44.2038 6.73733 44.5958 6.532C44.9878 6.31733 45.4171 6.21 45.8838 6.21C46.3691 6.21 46.8031 6.31267 47.1858 6.518C47.5684 6.72333 47.8718 7.01267 48.0958 7.386C48.3291 7.75933 48.4458 8.20733 48.4458 8.73V13H47.1718ZM54.4724 13V3.2H56.0544V13H54.4724ZM52.5124 4.642V3.2H55.9144V4.642H52.5124ZM58.889 13L62.459 4.18H64.055L60.569 13H58.889ZM57.489 4.642V3.2H64.055V4.18L63.369 4.642H57.489ZM65.5398 13.14C65.2411 13.14 64.9938 13.042 64.7978 12.846C64.6111 12.6407 64.5178 12.3933 64.5178 12.104C64.5178 11.8053 64.6111 11.558 64.7978 11.362C64.9938 11.166 65.2411 11.068 65.5398 11.068C65.8384 11.068 66.0811 11.166 66.2678 11.362C66.4638 11.558 66.5618 11.8053 66.5618 12.104C66.5618 12.3933 66.4638 12.6407 66.2678 12.846C66.0811 13.042 65.8384 13.14 65.5398 13.14ZM71.0283 13.14C70.347 13.14 69.7403 13.0233 69.2083 12.79C68.6763 12.5473 68.2283 12.1973 67.8643 11.74L68.9563 10.648C69.1523 10.9467 69.4276 11.1847 69.7823 11.362C70.1463 11.5393 70.5523 11.628 71.0003 11.628C71.411 11.628 71.7703 11.5533 72.0783 11.404C72.3863 11.2547 72.629 11.04 72.8063 10.76C72.9836 10.48 73.0723 10.1487 73.0723 9.766C73.0723 9.36467 72.9836 9.03333 72.8063 8.772C72.6383 8.50133 72.4096 8.30067 72.1203 8.17C71.8403 8.03 71.537 7.96 71.2103 7.96C70.837 7.96 70.501 8.002 70.2023 8.086C69.913 8.17 69.6283 8.31933 69.3483 8.534L69.3903 7.526C69.5396 7.33 69.7123 7.17133 69.9083 7.05C70.1043 6.91933 70.333 6.82133 70.5943 6.756C70.8556 6.69067 71.1636 6.658 71.5183 6.658C72.209 6.658 72.7876 6.80267 73.2543 7.092C73.7303 7.38133 74.0896 7.76867 74.3323 8.254C74.575 8.73 74.6963 9.262 74.6963 9.85C74.6963 10.4847 74.5376 11.0493 74.2203 11.544C73.9123 12.0387 73.483 12.4307 72.9323 12.72C72.3816 13 71.747 13.14 71.0283 13.14ZM69.3483 8.534L68.4663 7.652L68.9003 3.2H70.3703L69.8663 7.834L69.3483 8.534ZM69.1803 4.642L68.9003 3.2H74.1503V4.642H69.1803ZM77.1172 13L79.9872 8.982L80.5612 8.632C80.4679 8.83733 80.3466 9.01933 80.1972 9.178C80.0572 9.33667 79.8706 9.458 79.6372 9.542C79.4039 9.626 79.1052 9.668 78.7412 9.668C78.1812 9.668 77.6679 9.53733 77.2012 9.276C76.7346 9.00533 76.3612 8.632 76.0812 8.156C75.8012 7.68 75.6612 7.12933 75.6612 6.504C75.6612 5.86933 75.8152 5.29067 76.1232 4.768C76.4406 4.24533 76.8606 3.83 77.3832 3.522C77.9059 3.214 78.4892 3.06 79.1332 3.06C79.7866 3.06 80.3746 3.214 80.8972 3.522C81.4199 3.82067 81.8306 4.22667 82.1292 4.74C82.4372 5.244 82.5912 5.81333 82.5912 6.448C82.5912 7.344 82.2786 8.24933 81.6532 9.164L78.9792 13H77.1172ZM79.1332 8.408C79.4879 8.408 79.8052 8.324 80.0852 8.156C80.3652 7.988 80.5846 7.75933 80.7432 7.47C80.9019 7.18067 80.9812 6.85867 80.9812 6.504C80.9812 6.13067 80.9019 5.79933 80.7432 5.51C80.5846 5.22067 80.3652 4.992 80.0852 4.824C79.8052 4.656 79.4879 4.572 79.1332 4.572C78.7786 4.572 78.4612 4.656 78.1812 4.824C77.9012 4.992 77.6772 5.22067 77.5092 5.51C77.3506 5.79933 77.2712 6.13067 77.2712 6.504C77.2712 6.868 77.3506 7.19467 77.5092 7.484C77.6772 7.764 77.9012 7.988 78.1812 8.156C78.4706 8.324 78.7879 8.408 79.1332 8.408ZM86.9273 13V3.2H88.5373V13H86.9273ZM88.0333 8.8V7.33H93.0173V8.8H88.0333ZM88.0333 4.67V3.2H93.2553V4.67H88.0333ZM94.647 13V2.92H96.187V13H94.647ZM100.981 13.14C100.328 13.14 99.7349 12.986 99.2029 12.678C98.6709 12.3607 98.2462 11.936 97.9289 11.404C97.6209 10.872 97.4669 10.2793 97.4669 9.626C97.4669 8.97267 97.6209 8.38467 97.9289 7.862C98.2462 7.33933 98.6709 6.924 99.2029 6.616C99.7349 6.29867 100.328 6.14 100.981 6.14C101.644 6.14 102.241 6.294 102.773 6.602C103.305 6.91 103.725 7.33 104.033 7.862C104.35 8.38467 104.509 8.97267 104.509 9.626C104.509 10.2793 104.35 10.872 104.033 11.404C103.725 11.936 103.305 12.3607 102.773 12.678C102.241 12.986 101.644 13.14 100.981 13.14ZM100.981 11.656C101.364 11.656 101.7 11.572 101.989 11.404C102.288 11.2267 102.516 10.984 102.675 10.676C102.843 10.368 102.927 10.018 102.927 9.626C102.927 9.234 102.843 8.88867 102.675 8.59C102.507 8.29133 102.278 8.058 101.989 7.89C101.7 7.71267 101.364 7.624 100.981 7.624C100.608 7.624 100.272 7.71267 99.9729 7.89C99.6835 8.058 99.4549 8.29133 99.2869 8.59C99.1282 8.88867 99.0489 9.234 99.0489 9.626C99.0489 10.018 99.1282 10.368 99.2869 10.676C99.4549 10.984 99.6835 11.2267 99.9729 11.404C100.272 11.572 100.608 11.656 100.981 11.656ZM107.585 13L104.883 6.28H106.479L108.299 11.166L107.823 11.18L109.601 6.28H110.497L112.275 11.18L111.799 11.166L113.619 6.28H115.215L112.513 13H111.617L109.797 8.352H110.301L108.481 13H107.585Z" fill="white"/>
<path fill-rule="evenodd" clip-rule="evenodd" d="M8.65065 4.66665C8.16063 4.66665 7.76342 5.0646 7.76342 5.55552V6.26673H10.6469V8.9778H7.71903V10.1334C7.71903 12.2689 5.9911 14 3.85951 14C1.72798 14 0 12.2689 0 10.1334C0 7.9979 1.72798 6.26673 3.85951 6.26673H5.10167V5.55552C5.10167 3.59189 6.69059 2 8.65065 2H12V4.66665H8.65065ZM5.10156 6.28893V8.97787H7.71893V6.28893H5.10156ZM2.66162 10.1335C2.66162 9.47073 3.19791 8.93351 3.85939 8.93351H5.05721V10.1335C5.05721 10.7962 4.52093 11.3335 3.85939 11.3335C3.19791 11.3335 2.66162 10.7962 2.66162 10.1335Z" fill="#03DB80"/>
</svg>
