<svg width="34" height="18" viewBox="0 0 34 18" fill="none" xmlns="http://www.w3.org/2000/svg">
<path d="M18.4145 13.048L22.0265 9.212C22.3251 8.89467 22.5678 8.61 22.7545 8.358C22.9411 8.106 23.0765 7.868 23.1605 7.644C23.2445 7.42 23.2865 7.19133 23.2865 6.958C23.2865 6.51933 23.1418 6.17867 22.8525 5.936C22.5725 5.684 22.2131 5.558 21.7745 5.558C21.3078 5.558 20.8971 5.67467 20.5425 5.908C20.1878 6.14133 19.8705 6.50533 19.5905 7L18.4705 6.076C18.8531 5.41333 19.3245 4.914 19.8845 4.578C20.4445 4.23267 21.0931 4.06 21.8305 4.06C22.4371 4.06 22.9691 4.18133 23.4265 4.424C23.8838 4.66667 24.2385 5.00733 24.4905 5.446C24.7425 5.87533 24.8685 6.37467 24.8685 6.944C24.8685 7.35467 24.8171 7.72333 24.7145 8.05C24.6211 8.36733 24.4578 8.68933 24.2245 9.016C23.9911 9.33333 23.6691 9.70667 23.2585 10.136L20.4865 13.006L18.4145 13.048ZM18.4145 14V13.048L19.8005 12.558H25.0645V14H18.4145ZM25.9887 10.5L29.4747 4.2H31.2947L27.7247 10.5H25.9887ZM25.9887 11.48V10.5L26.6747 10.038H33.5907V11.48H25.9887ZM30.6367 14V7.588H32.2187V14H30.6367Z" fill="white"/>
<g clip-path="url(#clip0_1_121)">
<path d="M12.8753 4.31563C11.3527 2.79343 8.87573 2.79343 7.35353 4.31563L6.99997 4.66899L6.64662 4.31563C5.12442 2.79323 2.64723 2.79323 1.12503 4.31563C-0.366261 5.80693 -0.375945 8.17079 1.10258 9.81435C2.45109 11.3129 6.42822 14.5503 6.59696 14.6873C6.71152 14.7805 6.84936 14.8258 6.98637 14.8258C6.99091 14.8258 6.99544 14.8258 6.99976 14.8256C7.14152 14.8322 7.2843 14.7835 7.40257 14.6873C7.57131 14.5503 11.5489 11.3129 12.8978 9.81414C14.3761 8.17079 14.3664 5.80693 12.8753 4.31563ZM11.9789 8.98731C10.9274 10.1553 8.03737 12.5643 6.99976 13.4192C5.96216 12.5645 3.0727 10.1557 2.0215 8.98752C0.99008 7.84113 0.980396 6.20849 1.99904 5.18985C2.51929 4.66981 3.2025 4.40959 3.88572 4.40959C4.56894 4.40959 5.25216 4.6696 5.7724 5.18985L6.54957 5.96702C6.64208 6.05953 6.7587 6.11475 6.88109 6.13411C7.07971 6.17676 7.29522 6.12134 7.44975 5.96722L8.22733 5.18985C9.26802 4.14957 10.9608 4.14977 12.0009 5.18985C13.0195 6.20849 13.0099 7.84113 11.9789 8.98731Z" fill="white"/>
</g>
<defs>
<clipPath id="clip0_1_121">
<rect width="14" height="14" fill="white" transform="translate(0 2)"/>
</clipPath>
</defs>
</svg>
