<svg width="164" height="32" viewBox="0 0 164 32" fill="none" xmlns="http://www.w3.org/2000/svg">
<g clip-path="url(#clip0_1_703)">
<rect width="32" height="32" rx="4" fill="#12121B"/>
<path d="M17.0683 26.6665V16.9353H20.3347L20.8237 13.1429H17.0683V10.7216C17.0683 9.62363 17.3732 8.87531 18.9479 8.87531L20.9561 8.87438V5.48252C20.6086 5.43648 19.4166 5.33325 18.0298 5.33325C15.1344 5.33325 13.1521 7.10052 13.1521 10.3462V13.143H9.87729V16.9354H13.152V26.6666L17.0683 26.6665Z" fill="white"/>
</g>
<g clip-path="url(#clip1_1_703)">
<rect x="44" width="32" height="32" rx="4" fill="#12121B"/>
<path d="M67.8417 12.5417C67.8417 12.7167 67.8417 12.8917 67.8417 13.0417C67.8417 18.2167 63.8917 24.1917 56.6917 24.1917C54.4667 24.1917 52.4167 23.5417 50.6667 22.4417C50.9667 22.4667 51.2917 22.4917 51.5917 22.4917C53.4167 22.4917 55.1167 21.8667 56.4667 20.8167C54.7417 20.7917 53.2917 19.6417 52.8167 18.0917C53.0667 18.1417 53.2917 18.1667 53.5667 18.1667C53.9167 18.1667 54.2667 18.1167 54.5917 18.0167C52.7917 17.6667 51.4417 16.0917 51.4417 14.1917C51.4417 14.1667 51.4417 14.1667 51.4417 14.1417C51.9667 14.4417 52.5667 14.6167 53.2167 14.6417C52.1667 13.9417 51.4667 12.7417 51.4667 11.3667C51.4667 10.6417 51.6667 9.96675 51.9917 9.39175C53.9167 11.7667 56.8167 13.3167 60.0667 13.4917C59.9917 13.2167 59.9667 12.8917 59.9667 12.5917C59.9667 10.4167 61.7167 8.66675 63.8917 8.66675C65.0167 8.66675 66.0417 9.14175 66.7417 9.89175C67.6417 9.71675 68.4667 9.39175 69.2417 8.94175C68.9417 9.86675 68.3167 10.6167 67.5167 11.1167C68.3167 11.0167 69.0667 10.8167 69.7667 10.4917C69.2667 11.2917 68.6167 11.9917 67.8417 12.5417Z" fill="white"/>
</g>
<rect x="88" width="32" height="32" rx="4" fill="#12121B"/>
<path d="M103.997 12.6652C102.161 12.6652 100.663 14.1638 100.663 16C100.663 17.8362 102.161 19.3348 103.997 19.3348C105.834 19.3348 107.332 17.8362 107.332 16C107.332 14.1638 105.834 12.6652 103.997 12.6652ZM113.999 16C113.999 14.6191 114.011 13.2506 113.934 11.8722C113.856 10.2711 113.491 8.85017 112.32 7.67938C111.147 6.50609 109.729 6.14334 108.128 6.06579C106.747 5.98824 105.378 6.00074 104 6.00074C102.619 6.00074 101.251 5.98824 99.8721 6.06579C98.271 6.14334 96.8501 6.50859 95.6793 7.67938C94.5061 8.85267 94.1433 10.2711 94.0658 11.8722C93.9882 13.2531 94.0007 14.6216 94.0007 16C94.0007 17.3784 93.9882 18.7494 94.0658 20.1278C94.1433 21.7289 94.5086 23.1498 95.6793 24.3206C96.8526 25.4939 98.271 25.8567 99.8721 25.9342C101.253 26.0118 102.621 25.9993 104 25.9993C105.381 25.9993 106.749 26.0118 108.128 25.9342C109.729 25.8567 111.15 25.4914 112.32 24.3206C113.494 23.1473 113.856 21.7289 113.934 20.1278C114.014 18.7494 113.999 17.3809 113.999 16ZM103.997 21.131C101.158 21.131 98.8664 18.8394 98.8664 16C98.8664 13.1606 101.158 10.869 103.997 10.869C106.837 10.869 109.128 13.1606 109.128 16C109.128 18.8394 106.837 21.131 103.997 21.131ZM109.338 11.8572C108.675 11.8572 108.14 11.3218 108.14 10.6589C108.14 9.99594 108.675 9.46058 109.338 9.46058C110.001 9.46058 110.537 9.99594 110.537 10.6589C110.537 10.8163 110.506 10.9722 110.446 11.1177C110.386 11.2632 110.297 11.3954 110.186 11.5067C110.075 11.618 109.943 11.7062 109.797 11.7664C109.652 11.8265 109.496 11.8574 109.338 11.8572Z" fill="white"/>
<g clip-path="url(#clip2_1_703)">
<rect x="132" width="32" height="32" rx="4" fill="#12121B"/>
<path d="M156.883 23.55C155.833 23.525 154.808 23.525 153.758 23.55C153.533 23.55 153.483 23.5 153.483 23.275C153.483 21.425 153.483 19.55 153.483 17.7C153.483 17.275 153.458 16.85 153.333 16.45C152.958 15.15 151.458 14.675 150.383 15.55C149.808 16 149.583 16.625 149.583 17.375C149.583 19.125 149.583 20.875 149.583 22.625C149.583 22.85 149.558 23.075 149.583 23.325C149.608 23.525 149.508 23.575 149.333 23.55C148.258 23.55 147.208 23.55 146.133 23.55C145.933 23.55 145.883 23.5 145.883 23.3C145.908 21.725 145.908 20.15 145.908 18.55C145.908 16.6 145.908 14.65 145.883 12.725C145.883 12.5 145.933 12.45 146.133 12.45C147.208 12.45 148.258 12.45 149.333 12.45C149.533 12.45 149.583 12.5 149.583 12.7C149.583 13.1 149.583 13.5 149.583 13.975C149.658 13.9 149.683 13.875 149.708 13.85C150.683 12.425 152.058 12.025 153.683 12.275C155.558 12.575 156.758 13.875 157.058 15.875C157.133 16.35 157.158 16.825 157.158 17.3C157.158 19.3 157.158 21.275 157.158 23.275C157.158 23.475 157.108 23.55 156.883 23.55Z" fill="white"/>
<path d="M143.883 18C143.883 19.75 143.883 21.5 143.883 23.25C143.883 23.475 143.833 23.55 143.608 23.55C142.558 23.525 141.508 23.55 140.458 23.55C140.258 23.55 140.208 23.5 140.208 23.3C140.208 19.775 140.208 16.225 140.208 12.7C140.208 12.525 140.258 12.45 140.458 12.45C141.533 12.45 142.608 12.45 143.683 12.45C143.908 12.45 143.933 12.525 143.933 12.725C143.883 14.475 143.883 16.225 143.883 18Z" fill="white"/>
<path d="M144.058 9.55001C143.808 10.55 142.783 11.125 141.608 10.925C140.358 10.725 139.658 9.50001 140.108 8.30001C140.408 7.55001 141.133 7.10001 142.058 7.12501C143.458 7.10001 144.383 8.22501 144.058 9.55001Z" fill="white"/>
</g>
<defs>
<clipPath id="clip0_1_703">
<rect width="32" height="32" rx="4" fill="white"/>
</clipPath>
<clipPath id="clip1_1_703">
<rect x="44" width="32" height="32" rx="4" fill="white"/>
</clipPath>
<clipPath id="clip2_1_703">
<rect x="132" width="32" height="32" rx="4" fill="white"/>
</clipPath>
</defs>
</svg>
