<svg width="82" height="18" viewBox="0 0 82 18" fill="none" xmlns="http://www.w3.org/2000/svg">
<path fill-rule="evenodd" clip-rule="evenodd" d="M8.65065 5.66665C8.16063 5.66665 7.76342 6.0646 7.76342 6.55552V7.26673H10.6469V9.9778H7.71903V11.1334C7.71903 13.2689 5.9911 15 3.85951 15C1.72798 15 0 13.2689 0 11.1334C0 8.9979 1.72798 7.26673 3.85951 7.26673H5.10167V6.55552C5.10167 4.59189 6.69059 3 8.65065 3H12V5.66665H8.65065ZM5.10156 7.28893V9.97787H7.71893V7.28893H5.10156ZM2.66162 11.1335C2.66162 10.4707 3.19791 9.93351 3.85939 9.93351H5.05721V11.1335C5.05721 11.7962 4.52093 12.3335 3.85939 12.3335C3.19791 12.3335 2.66162 11.7962 2.66162 11.1335Z" fill="#03DB80"/>
<path d="M20.5939 14V4.284H21.8959V14H20.5939ZM18.6059 5.46V4.284H21.7559V5.46H18.6059ZM27.6454 14.14C26.9174 14.14 26.2501 13.9347 25.6434 13.524C25.0461 13.1133 24.5701 12.5347 24.2154 11.788C23.8607 11.032 23.6834 10.1453 23.6834 9.128C23.6834 8.11067 23.8561 7.22867 24.2014 6.482C24.5561 5.73533 25.0321 5.16133 25.6294 4.76C26.2267 4.34933 26.8847 4.144 27.6034 4.144C28.3407 4.144 29.0081 4.34933 29.6054 4.76C30.2027 5.16133 30.6741 5.73533 31.0194 6.482C31.3741 7.22867 31.5514 8.11533 31.5514 9.142C31.5514 10.1593 31.3741 11.046 31.0194 11.802C30.6741 12.5487 30.2027 13.1273 29.6054 13.538C29.0174 13.9393 28.3641 14.14 27.6454 14.14ZM27.6174 12.894C28.1307 12.894 28.5787 12.754 28.9614 12.474C29.3534 12.1847 29.6614 11.76 29.8854 11.2C30.1094 10.64 30.2214 9.94933 30.2214 9.128C30.2214 8.30667 30.1094 7.62067 29.8854 7.07C29.6614 6.51 29.3534 6.09 28.9614 5.81C28.5694 5.52067 28.1167 5.376 27.6034 5.376C27.0994 5.376 26.6514 5.52067 26.2594 5.81C25.8674 6.09 25.5594 6.51 25.3354 7.07C25.1207 7.62067 25.0134 8.30667 25.0134 9.128C25.0134 9.94933 25.1207 10.64 25.3354 11.2C25.5594 11.76 25.8674 12.1847 26.2594 12.474C26.6514 12.754 27.1041 12.894 27.6174 12.894ZM32.8241 15.54L33.6921 13.874L34.1401 13.762C34.0934 13.8647 34.0327 13.9487 33.9581 14.014C33.8927 14.0793 33.8087 14.112 33.7061 14.112C33.5101 14.112 33.3281 14.0327 33.1601 13.874C33.0014 13.706 32.9221 13.5007 32.9221 13.258C32.9221 12.9873 33.0107 12.7633 33.1881 12.586C33.3654 12.3993 33.5894 12.306 33.8601 12.306C34.1027 12.306 34.3174 12.3993 34.5041 12.586C34.6907 12.7633 34.7841 12.9873 34.7841 13.258C34.7841 13.3607 34.7607 13.4867 34.7141 13.636C34.6767 13.776 34.5974 13.958 34.4761 14.182L33.5521 15.932L32.8241 15.54ZM35.6964 10.654L39.2384 4.284H40.7224L37.1104 10.654H35.6964ZM35.6964 11.466V10.654L36.2564 10.29H43.1444V11.466H35.6964ZM40.4424 14V7.574H41.7444V14H40.4424ZM46.8685 14.14C46.2058 14.14 45.6132 14.0233 45.0905 13.79C44.5772 13.5473 44.1432 13.1973 43.7885 12.74L44.6845 11.844C44.8992 12.1707 45.1932 12.432 45.5665 12.628C45.9492 12.8147 46.3738 12.908 46.8405 12.908C47.2792 12.908 47.6618 12.824 47.9885 12.656C48.3245 12.488 48.5858 12.2547 48.7725 11.956C48.9685 11.648 49.0665 11.284 49.0665 10.864C49.0665 10.4347 48.9732 10.0707 48.7865 9.772C48.5998 9.47333 48.3478 9.24933 48.0305 9.1C47.7225 8.94133 47.3818 8.862 47.0085 8.862C46.6258 8.862 46.2758 8.90867 45.9585 9.002C45.6505 9.09533 45.3565 9.254 45.0765 9.478L45.0905 8.638C45.2492 8.442 45.4312 8.28333 45.6365 8.162C45.8418 8.04067 46.0752 7.94733 46.3365 7.882C46.5978 7.81667 46.9012 7.784 47.2465 7.784C47.9185 7.784 48.4878 7.924 48.9545 8.204C49.4212 8.484 49.7758 8.862 50.0185 9.338C50.2705 9.814 50.3965 10.346 50.3965 10.934C50.3965 11.55 50.2425 12.1007 49.9345 12.586C49.6358 13.0713 49.2205 13.454 48.6885 13.734C48.1565 14.0047 47.5498 14.14 46.8685 14.14ZM45.0765 9.478L44.3625 8.764L44.7965 4.284H46.0005L45.5105 8.89L45.0765 9.478ZM45.0625 5.46L44.7965 4.284H49.9065V5.46H45.0625ZM55.5907 14.14C54.8627 14.14 54.1954 13.9347 53.5887 13.524C52.9914 13.1133 52.5154 12.5347 52.1607 11.788C51.806 11.032 51.6287 10.1453 51.6287 9.128C51.6287 8.11067 51.8014 7.22867 52.1467 6.482C52.5014 5.73533 52.9774 5.16133 53.5747 4.76C54.172 4.34933 54.83 4.144 55.5487 4.144C56.286 4.144 56.9534 4.34933 57.5507 4.76C58.148 5.16133 58.6194 5.73533 58.9647 6.482C59.3194 7.22867 59.4967 8.11533 59.4967 9.142C59.4967 10.1593 59.3194 11.046 58.9647 11.802C58.6194 12.5487 58.148 13.1273 57.5507 13.538C56.9627 13.9393 56.3094 14.14 55.5907 14.14ZM55.5627 12.894C56.076 12.894 56.524 12.754 56.9067 12.474C57.2987 12.1847 57.6067 11.76 57.8307 11.2C58.0547 10.64 58.1667 9.94933 58.1667 9.128C58.1667 8.30667 58.0547 7.62067 57.8307 7.07C57.6067 6.51 57.2987 6.09 56.9067 5.81C56.5147 5.52067 56.062 5.376 55.5487 5.376C55.0447 5.376 54.5967 5.52067 54.2047 5.81C53.8127 6.09 53.5047 6.51 53.2807 7.07C53.066 7.62067 52.9587 8.30667 52.9587 9.128C52.9587 9.94933 53.066 10.64 53.2807 11.2C53.5047 11.76 53.8127 12.1847 54.2047 12.474C54.5967 12.754 55.0494 12.894 55.5627 12.894ZM61.8054 14.14C61.5441 14.14 61.3247 14.0513 61.1474 13.874C60.9794 13.6873 60.8954 13.468 60.8954 13.216C60.8954 12.9547 60.9794 12.74 61.1474 12.572C61.3247 12.3947 61.5441 12.306 61.8054 12.306C62.0667 12.306 62.2814 12.3947 62.4494 12.572C62.6267 12.74 62.7154 12.9547 62.7154 13.216C62.7154 13.468 62.6267 13.6873 62.4494 13.874C62.2814 14.0513 62.0667 14.14 61.8054 14.14ZM68.0731 14.14C67.3451 14.14 66.6778 13.9347 66.0711 13.524C65.4738 13.1133 64.9978 12.5347 64.6431 11.788C64.2885 11.032 64.1111 10.1453 64.1111 9.128C64.1111 8.11067 64.2838 7.22867 64.6291 6.482C64.9838 5.73533 65.4598 5.16133 66.0571 4.76C66.6545 4.34933 67.3125 4.144 68.0311 4.144C68.7685 4.144 69.4358 4.34933 70.0331 4.76C70.6305 5.16133 71.1018 5.73533 71.4471 6.482C71.8018 7.22867 71.9791 8.11533 71.9791 9.142C71.9791 10.1593 71.8018 11.046 71.4471 11.802C71.1018 12.5487 70.6305 13.1273 70.0331 13.538C69.4451 13.9393 68.7918 14.14 68.0731 14.14ZM68.0451 12.894C68.5585 12.894 69.0065 12.754 69.3891 12.474C69.7811 12.1847 70.0891 11.76 70.3131 11.2C70.5371 10.64 70.6491 9.94933 70.6491 9.128C70.6491 8.30667 70.5371 7.62067 70.3131 7.07C70.0891 6.51 69.7811 6.09 69.3891 5.81C68.9971 5.52067 68.5445 5.376 68.0311 5.376C67.5271 5.376 67.0791 5.52067 66.6871 5.81C66.2951 6.09 65.9871 6.51 65.7631 7.07C65.5485 7.62067 65.4411 8.30667 65.4411 9.128C65.4411 9.94933 65.5485 10.64 65.7631 11.2C65.9871 11.76 66.2951 12.1847 66.6871 12.474C67.0791 12.754 67.5318 12.894 68.0451 12.894ZM77.2606 14.14C76.5326 14.14 75.8653 13.9347 75.2586 13.524C74.6613 13.1133 74.1853 12.5347 73.8306 11.788C73.476 11.032 73.2986 10.1453 73.2986 9.128C73.2986 8.11067 73.4713 7.22867 73.8166 6.482C74.1713 5.73533 74.6473 5.16133 75.2446 4.76C75.842 4.34933 76.5 4.144 77.2186 4.144C77.956 4.144 78.6233 4.34933 79.2206 4.76C79.818 5.16133 80.2893 5.73533 80.6346 6.482C80.9893 7.22867 81.1666 8.11533 81.1666 9.142C81.1666 10.1593 80.9893 11.046 80.6346 11.802C80.2893 12.5487 79.818 13.1273 79.2206 13.538C78.6326 13.9393 77.9793 14.14 77.2606 14.14ZM77.2326 12.894C77.746 12.894 78.194 12.754 78.5766 12.474C78.9686 12.1847 79.2766 11.76 79.5006 11.2C79.7246 10.64 79.8366 9.94933 79.8366 9.128C79.8366 8.30667 79.7246 7.62067 79.5006 7.07C79.2766 6.51 78.9686 6.09 78.5766 5.81C78.1846 5.52067 77.732 5.376 77.2186 5.376C76.7146 5.376 76.2666 5.52067 75.8746 5.81C75.4826 6.09 75.1746 6.51 74.9506 7.07C74.736 7.62067 74.6286 8.30667 74.6286 9.128C74.6286 9.94933 74.736 10.64 74.9506 11.2C75.1746 11.76 75.4826 12.1847 75.8746 12.474C76.2666 12.754 76.7193 12.894 77.2326 12.894Z" fill="white"/>
</svg>
