<svg width="80" height="18" viewBox="0 0 80 18" fill="none" xmlns="http://www.w3.org/2000/svg">
<path fill-rule="evenodd" clip-rule="evenodd" d="M8.65065 5.66665C8.16063 5.66665 7.76342 6.0646 7.76342 6.55552V7.26673H10.6469V9.9778H7.71903V11.1334C7.71903 13.2689 5.9911 15 3.85951 15C1.72798 15 0 13.2689 0 11.1334C0 8.9979 1.72798 7.26673 3.85951 7.26673H5.10167V6.55552C5.10167 4.59189 6.69059 3 8.65065 3H12V5.66665H8.65065ZM5.10156 7.28893V9.97787H7.71893V7.28893H5.10156ZM2.66162 11.1335C2.66162 10.4707 3.19791 9.93351 3.85939 9.93351H5.05721V11.1335C5.05721 11.7962 4.52093 12.3335 3.85939 12.3335C3.19791 12.3335 2.66162 11.7962 2.66162 11.1335Z" fill="#03DB80"/>
<path d="M20.6329 14V4.284H21.9349V14H20.6329ZM18.6449 5.46V4.284H21.7949V5.46H18.6449ZM25.1225 14L28.0485 10.01L28.5245 9.758C28.4125 9.94467 28.2771 10.108 28.1185 10.248C27.9598 10.388 27.7638 10.4953 27.5305 10.57C27.3065 10.6447 27.0311 10.682 26.7045 10.682C26.1445 10.682 25.6265 10.5467 25.1505 10.276C24.6838 10.0053 24.3105 9.632 24.0305 9.156C23.7505 8.67067 23.6105 8.12467 23.6105 7.518C23.6105 6.89267 23.7645 6.328 24.0725 5.824C24.3805 5.31067 24.7911 4.90467 25.3045 4.606C25.8178 4.298 26.3871 4.144 27.0125 4.144C27.6471 4.144 28.2211 4.29333 28.7345 4.592C29.2478 4.89067 29.6538 5.292 29.9525 5.796C30.2511 6.29067 30.4005 6.85067 30.4005 7.476C30.4005 8.33467 30.1018 9.18867 29.5045 10.038L26.6485 14H25.1225ZM27.0125 9.646C27.4045 9.646 27.7545 9.55267 28.0625 9.366C28.3798 9.17 28.6271 8.91333 28.8045 8.596C28.9911 8.26933 29.0845 7.91 29.0845 7.518C29.0845 7.10733 28.9911 6.74333 28.8045 6.426C28.6271 6.09933 28.3798 5.84267 28.0625 5.656C27.7545 5.46933 27.4045 5.376 27.0125 5.376C26.6205 5.376 26.2658 5.46933 25.9485 5.656C25.6405 5.84267 25.3931 6.09933 25.2065 6.426C25.0198 6.74333 24.9265 7.10733 24.9265 7.518C24.9265 7.91933 25.0198 8.27867 25.2065 8.596C25.3931 8.91333 25.6451 9.17 25.9625 9.366C26.2798 9.55267 26.6298 9.646 27.0125 9.646ZM30.9628 15.54L31.8308 13.874L32.2788 13.762C32.2321 13.8647 32.1714 13.9487 32.0968 14.014C32.0314 14.0793 31.9474 14.112 31.8448 14.112C31.6488 14.112 31.4668 14.0327 31.2988 13.874C31.1401 13.706 31.0608 13.5007 31.0608 13.258C31.0608 12.9873 31.1494 12.7633 31.3268 12.586C31.5041 12.3993 31.7281 12.306 31.9988 12.306C32.2414 12.306 32.4561 12.3993 32.6428 12.586C32.8294 12.7633 32.9228 12.9873 32.9228 13.258C32.9228 13.3607 32.8994 13.4867 32.8528 13.636C32.8154 13.776 32.7361 13.958 32.6148 14.182L31.6908 15.932L30.9628 15.54ZM37.2822 14.14C36.6476 14.14 36.0689 14.0233 35.5462 13.79C35.0329 13.5473 34.5989 13.1973 34.2442 12.74L35.1402 11.844C35.3549 12.1707 35.6489 12.432 36.0222 12.628C36.3956 12.8147 36.8109 12.908 37.2682 12.908C37.6976 12.908 38.0662 12.8287 38.3742 12.67C38.6916 12.502 38.9389 12.2687 39.1162 11.97C39.3029 11.6713 39.3962 11.326 39.3962 10.934C39.3962 10.5327 39.3029 10.1873 39.1162 9.898C38.9389 9.59933 38.6869 9.37067 38.3602 9.212C38.0336 9.05333 37.6462 8.974 37.1982 8.974C37.0302 8.974 36.8622 8.988 36.6942 9.016C36.5262 9.03467 36.3629 9.06733 36.2042 9.114L36.7642 8.358C36.9416 8.274 37.1329 8.20867 37.3382 8.162C37.5436 8.11533 37.7489 8.092 37.9542 8.092C38.4769 8.092 38.9436 8.21333 39.3542 8.456C39.7742 8.69867 40.1056 9.03933 40.3482 9.478C40.6002 9.91667 40.7262 10.4253 40.7262 11.004C40.7262 11.62 40.5769 12.166 40.2782 12.642C39.9889 13.1087 39.5876 13.4773 39.0742 13.748C38.5609 14.0093 37.9636 14.14 37.2822 14.14ZM36.2042 9.114V8.316L39.0462 5.082L40.6142 5.068L37.6882 8.386L36.2042 9.114ZM34.7062 5.46V4.284H40.6142V5.068L39.4662 5.46H34.7062ZM41.8194 13.202L45.4034 9.422C45.7674 9.04867 46.0521 8.72667 46.2574 8.456C46.4628 8.176 46.6074 7.91933 46.6914 7.686C46.7848 7.45267 46.8314 7.21 46.8314 6.958C46.8314 6.46333 46.6728 6.076 46.3554 5.796C46.0381 5.516 45.6274 5.376 45.1234 5.376C44.6288 5.376 44.1948 5.49733 43.8214 5.74C43.4481 5.97333 43.1168 6.33733 42.8274 6.832L41.9034 6.062C42.2861 5.42733 42.7481 4.95133 43.2894 4.634C43.8308 4.30733 44.4561 4.144 45.1654 4.144C45.7628 4.144 46.2808 4.26067 46.7194 4.494C47.1674 4.72733 47.5128 5.054 47.7554 5.474C47.9981 5.894 48.1194 6.384 48.1194 6.944C48.1194 7.34533 48.0681 7.70467 47.9654 8.022C47.8721 8.33933 47.6994 8.666 47.4474 9.002C47.2048 9.32867 46.8641 9.72067 46.4254 10.178L43.5274 13.16L41.8194 13.202ZM41.8194 14V13.202L42.9394 12.824H48.3434V14H41.8194ZM53.5516 14.14C52.8236 14.14 52.1563 13.9347 51.5496 13.524C50.9523 13.1133 50.4763 12.5347 50.1216 11.788C49.767 11.032 49.5896 10.1453 49.5896 9.128C49.5896 8.11067 49.7623 7.22867 50.1076 6.482C50.4623 5.73533 50.9383 5.16133 51.5356 4.76C52.133 4.34933 52.791 4.144 53.5096 4.144C54.247 4.144 54.9143 4.34933 55.5116 4.76C56.109 5.16133 56.5803 5.73533 56.9256 6.482C57.2803 7.22867 57.4576 8.11533 57.4576 9.142C57.4576 10.1593 57.2803 11.046 56.9256 11.802C56.5803 12.5487 56.109 13.1273 55.5116 13.538C54.9236 13.9393 54.2703 14.14 53.5516 14.14ZM53.5236 12.894C54.037 12.894 54.485 12.754 54.8676 12.474C55.2596 12.1847 55.5676 11.76 55.7916 11.2C56.0156 10.64 56.1276 9.94933 56.1276 9.128C56.1276 8.30667 56.0156 7.62067 55.7916 7.07C55.5676 6.51 55.2596 6.09 54.8676 5.81C54.4756 5.52067 54.023 5.376 53.5096 5.376C53.0056 5.376 52.5576 5.52067 52.1656 5.81C51.7736 6.09 51.4656 6.51 51.2416 7.07C51.027 7.62067 50.9196 8.30667 50.9196 9.128C50.9196 9.94933 51.027 10.64 51.2416 11.2C51.4656 11.76 51.7736 12.1847 52.1656 12.474C52.5576 12.754 53.0103 12.894 53.5236 12.894ZM59.7663 14.14C59.505 14.14 59.2857 14.0513 59.1083 13.874C58.9403 13.6873 58.8563 13.468 58.8563 13.216C58.8563 12.9547 58.9403 12.74 59.1083 12.572C59.2857 12.3947 59.505 12.306 59.7663 12.306C60.0277 12.306 60.2423 12.3947 60.4103 12.572C60.5877 12.74 60.6763 12.9547 60.6763 13.216C60.6763 13.468 60.5877 13.6873 60.4103 13.874C60.2423 14.0513 60.0277 14.14 59.7663 14.14ZM66.0341 14.14C65.3061 14.14 64.6387 13.9347 64.0321 13.524C63.4347 13.1133 62.9587 12.5347 62.6041 11.788C62.2494 11.032 62.0721 10.1453 62.0721 9.128C62.0721 8.11067 62.2447 7.22867 62.5901 6.482C62.9447 5.73533 63.4207 5.16133 64.0181 4.76C64.6154 4.34933 65.2734 4.144 65.9921 4.144C66.7294 4.144 67.3967 4.34933 67.9941 4.76C68.5914 5.16133 69.0627 5.73533 69.4081 6.482C69.7627 7.22867 69.9401 8.11533 69.9401 9.142C69.9401 10.1593 69.7627 11.046 69.4081 11.802C69.0627 12.5487 68.5914 13.1273 67.9941 13.538C67.4061 13.9393 66.7527 14.14 66.0341 14.14ZM66.0061 12.894C66.5194 12.894 66.9674 12.754 67.3501 12.474C67.7421 12.1847 68.0501 11.76 68.2741 11.2C68.4981 10.64 68.6101 9.94933 68.6101 9.128C68.6101 8.30667 68.4981 7.62067 68.2741 7.07C68.0501 6.51 67.7421 6.09 67.3501 5.81C66.9581 5.52067 66.5054 5.376 65.9921 5.376C65.4881 5.376 65.0401 5.52067 64.6481 5.81C64.2561 6.09 63.9481 6.51 63.7241 7.07C63.5094 7.62067 63.4021 8.30667 63.4021 9.128C63.4021 9.94933 63.5094 10.64 63.7241 11.2C63.9481 11.76 64.2561 12.1847 64.6481 12.474C65.0401 12.754 65.4927 12.894 66.0061 12.894ZM75.2216 14.14C74.4936 14.14 73.8262 13.9347 73.2196 13.524C72.6222 13.1133 72.1462 12.5347 71.7916 11.788C71.4369 11.032 71.2596 10.1453 71.2596 9.128C71.2596 8.11067 71.4322 7.22867 71.7776 6.482C72.1322 5.73533 72.6082 5.16133 73.2056 4.76C73.8029 4.34933 74.4609 4.144 75.1796 4.144C75.9169 4.144 76.5842 4.34933 77.1816 4.76C77.7789 5.16133 78.2502 5.73533 78.5956 6.482C78.9502 7.22867 79.1276 8.11533 79.1276 9.142C79.1276 10.1593 78.9502 11.046 78.5956 11.802C78.2502 12.5487 77.7789 13.1273 77.1816 13.538C76.5936 13.9393 75.9402 14.14 75.2216 14.14ZM75.1936 12.894C75.7069 12.894 76.1549 12.754 76.5376 12.474C76.9296 12.1847 77.2376 11.76 77.4616 11.2C77.6856 10.64 77.7976 9.94933 77.7976 9.128C77.7976 8.30667 77.6856 7.62067 77.4616 7.07C77.2376 6.51 76.9296 6.09 76.5376 5.81C76.1456 5.52067 75.6929 5.376 75.1796 5.376C74.6756 5.376 74.2276 5.52067 73.8356 5.81C73.4436 6.09 73.1356 6.51 72.9116 7.07C72.6969 7.62067 72.5896 8.30667 72.5896 9.128C72.5896 9.94933 72.6969 10.64 72.9116 11.2C73.1356 11.76 73.4436 12.1847 73.8356 12.474C74.2276 12.754 74.6802 12.894 75.1936 12.894Z" fill="white"/>
</svg>
